<svg xmlns="http://www.w3.org/2000/svg" xmlns:xlink="http://www.w3.org/1999/xlink" width="1080" zoomAndPan="magnify" viewBox="0 0 810 1012.49997" height="1350" preserveAspectRatio="xMidYMid meet" version="1.0"><defs><filter x="0%" y="0%" width="100%" height="100%" id="f174bce12e"><feColorMatrix values="0 0 0 0 1 0 0 0 0 1 0 0 0 0 1 0 0 0 1 0" color-interpolation-filters="sRGB"></feColorMatrix></filter><filter x="0%" y="0%" width="100%" height="100%" id="5997b1f1c8"><feColorMatrix values="0 0 0 0 1 0 0 0 0 1 0 0 0 0 1 0.2126 0.7152 0.0722 0 0" color-interpolation-filters="sRGB"></feColorMatrix></filter><g></g><clipPath id="e499bc376c"><path d="M 0.199219 0 L 795 0 L 795 1012 L 0.199219 1012 Z M 0.199219 0 " clip-rule="nonzero"></path></clipPath><clipPath id="8c6e604288"><path d="M 0.199219 388 L 785 388 L 785 1012 L 0.199219 1012 Z M 0.199219 388 " clip-rule="nonzero"></path></clipPath><clipPath id="625b8a5a6c"><path d="M 0.199219 1 L 784.371094 1 L 784.371094 624 L 0.199219 624 Z M 0.199219 1 " clip-rule="nonzero"></path></clipPath><mask id="2c73d7c40a"><g filter="url(#f174bce12e)"><g filter="url(#5997b1f1c8)" transform="matrix(0.239882, 0, 0, 0.239882, -0.0399682, 0.847949)"><image x="0" y="0" width="3271" height="2599" preserveAspectRatio="xMidYMid meet"></image></g></g></mask><clipPath id="b30231b803"><rect x="0" width="785" y="0" height="624"></rect></clipPath><clipPath id="9f4edd9e91"><path d="M 38 535 L 283 535 L 283 788 L 38 788 Z M 38 535 " clip-rule="nonzero"></path></clipPath><clipPath id="743b3a0633"><path d="M 37.890625 605.03125 L 207.246094 534.957031 L 282.828125 717.617188 L 113.472656 787.691406 Z M 37.890625 605.03125 " clip-rule="nonzero"></path></clipPath><mask id="2d1dcc29b9"><g filter="url(#f174bce12e)"><g filter="url(#5997b1f1c8)" transform="matrix(0.286071, -0.11837, 0.118095, 0.285407, 37.892293, 605.029961)"><image x="0" y="0" width="592" height="640" preserveAspectRatio="xMidYMid meet"></image></g></g></mask><clipPath id="de9d159c97"><path d="M 0.199219 0 L 794.925781 0 L 794.925781 664 L 0.199219 664 Z M 0.199219 0 " clip-rule="nonzero"></path></clipPath><clipPath id="fd60555a5d"><path d="M 0.199219 0 L 794.925781 0 L 794.925781 663.511719 L 0.199219 663.511719 Z M 0.199219 0 " clip-rule="nonzero"></path></clipPath><mask id="7482514042"><g filter="url(#f174bce12e)"><g filter="url(#5997b1f1c8)" transform="matrix(0.239882, 0, 0, 0.239882, -0.0399682, -0.239882)"><image x="0" y="0" width="3315" height="2768" preserveAspectRatio="xMidYMid meet"></image></g></g></mask><clipPath id="bf050c8d32"><path d="M 432 0 L 720 0 L 720 452 L 432 452 Z M 432 0 " clip-rule="nonzero"></path></clipPath><clipPath id="694981f354"><rect x="0" width="795" y="0" height="664"></rect></clipPath><clipPath id="586483a791"><rect x="0" width="795" y="0" height="1012"></rect></clipPath></defs><g clip-path="url(#e499bc376c)"><g transform="matrix(1, 0, 0, 1, 0.000000000000000028, 0)"><g clip-path="url(#586483a791)"><g clip-path="url(#8c6e604288)"><g transform="matrix(1, 0, 0, 1, 0.000000000000000028, 388)"><g clip-path="url(#b30231b803)"><g clip-path="url(#625b8a5a6c)"><g mask="url(#2c73d7c40a)"><g transform="matrix(0.239882, 0, 0, 0.239882, -0.0399682, 0.847949)"><image x="0" y="0" width="3271" height="2599" preserveAspectRatio="xMidYMid meet"></image></g></g></g><g fill="#f4be00" fill-opacity="1"><g transform="translate(107.895184, 609.371632)"><g></g></g></g><g fill="#f4be00" fill-opacity="1"><g transform="translate(191.448351, 594.092718)"><g></g></g></g><g fill="#f4be00" fill-opacity="1"><g transform="translate(275.008899, 578.812454)"><g><path d="M 20.890625 -435.53125 L 90.703125 -448.3125 C 115.773438 -452.894531 137.1875 -449.921875 154.9375 -439.390625 C 172.695312 -428.867188 184.015625 -410.273438 188.890625 -383.609375 C 189.765625 -378.835938 190.394531 -373.710938 190.78125 -368.234375 C 191.164062 -362.753906 191.46875 -357.15625 191.6875 -351.4375 L 192.25 -291.109375 C 192.019531 -254.054688 184.523438 -226.984375 169.765625 -209.890625 C 155.015625 -192.796875 134.90625 -181.921875 109.4375 -177.265625 L 87.953125 -173.34375 L 89.515625 -16.375 L 23.875 -4.359375 Z M 99.71875 -237.171875 C 107.675781 -238.628906 114.03125 -242.671875 118.78125 -249.296875 C 123.53125 -255.929688 125.914062 -267.054688 125.9375 -282.671875 L 125.703125 -348.015625 C 125.847656 -351.734375 125.738281 -354.585938 125.375 -356.578125 C 125.007812 -358.578125 124.609375 -360.769531 124.171875 -363.15625 C 122.421875 -372.707031 119.125 -379.503906 114.28125 -383.546875 C 109.4375 -387.597656 104.023438 -389.078125 98.046875 -387.984375 L 86.703125 -385.90625 L 87.796875 -235 Z M 99.71875 -237.171875 "></path></g></g></g><g fill="#f4be00" fill-opacity="1"><g transform="translate(480.907552, 541.160884)"><g><path d="M 20.890625 -435.53125 L 149.1875 -459 L 149.3125 -394.265625 L 86.65625 -382.8125 L 87.6875 -265.8125 L 144.390625 -276.1875 L 144.515625 -211.453125 L 87.8125 -201.09375 L 88.796875 -80.984375 L 154.453125 -93 L 155.171875 -28.375 L 23.875 -4.359375 Z M 20.890625 -435.53125 "></path></g></g></g></g></g></g><g clip-path="url(#9f4edd9e91)"><g clip-path="url(#743b3a0633)"><g mask="url(#2d1dcc29b9)"><g transform="matrix(0.286071, -0.11837, 0.118095, 0.285407, 37.892293, 605.029961)"><image x="0" y="0" width="592" height="640" preserveAspectRatio="xMidYMid meet"></image></g></g></g></g><g clip-path="url(#de9d159c97)"><g transform="matrix(1, 0, 0, 1, 0.000000000000000028, 0)"><g clip-path="url(#694981f354)"><g clip-path="url(#fd60555a5d)"><g mask="url(#7482514042)"><g transform="matrix(0.239882, 0, 0, 0.239882, -0.0399682, -0.239882)"><image x="0" y="0" width="3315" height="2768" preserveAspectRatio="xMidYMid meet"></image></g></g></g><g fill="#fefefe" fill-opacity="1"><g transform="translate(65.989441, 526.371447)"><g><path d="M 106.078125 -103.078125 L 1.953125 -84.03125 L 1.796875 -143.796875 L 86.765625 -434.28125 L 164.84375 -448.5625 L 166.640625 -173.9375 L 192.65625 -178.703125 L 192.828125 -118.9375 L 166.796875 -114.171875 L 167.734375 -30.671875 L 107 -19.5625 Z M 105.90625 -162.828125 L 109.9375 -350.0625 L 108.203125 -349.734375 L 63.109375 -155.015625 Z M 105.90625 -162.828125 "></path></g></g></g><g fill="#fefefe" fill-opacity="1"><g transform="translate(259.754175, 490.938741)"><g><path d="M 20.25 -422.109375 L 83.875 -433.75 L 85 -257.625 L 125.484375 -265.03125 L 124.359375 -441.15625 L 187.984375 -452.78125 L 190.875 -34.90625 L 127.25 -23.265625 L 125.59375 -202.296875 L 85.109375 -194.890625 L 86.765625 -15.859375 L 23.125 -4.234375 Z M 20.25 -422.109375 "></path></g></g></g><g clip-path="url(#bf050c8d32)"><g fill="#fefefe" fill-opacity="1"><g transform="translate(473.763077, 451.804094)"><g><path d="M 112.109375 -14.53125 C 88.972656 -10.289062 69.203125 -13.242188 52.796875 -23.390625 C 36.398438 -33.546875 25.875 -51.347656 21.21875 -76.796875 C 20.445312 -81.035156 19.90625 -85.617188 19.59375 -90.546875 C 19.289062 -95.484375 19.035156 -100.71875 18.828125 -106.25 L 17.859375 -333.796875 C 17.535156 -366.023438 24.132812 -390.945312 37.65625 -408.5625 C 51.175781 -426.1875 69.503906 -437.113281 92.640625 -441.34375 C 115.773438 -445.570312 135.539062 -442.609375 151.9375 -432.453125 C 168.34375 -422.296875 178.875 -404.492188 183.53125 -379.046875 C 184.300781 -374.804688 184.835938 -370.222656 185.140625 -365.296875 C 185.441406 -360.378906 185.703125 -355.148438 185.921875 -349.609375 L 186.890625 -122.046875 C 187.203125 -89.816406 180.597656 -64.894531 167.078125 -47.28125 C 153.566406 -29.675781 135.242188 -18.757812 112.109375 -14.53125 Z M 105.59375 -73.109375 C 110.988281 -74.097656 115.367188 -77.390625 118.734375 -82.984375 C 122.097656 -88.578125 123.648438 -97.523438 123.390625 -109.828125 L 121.9375 -349.84375 C 122.09375 -351.070312 122.0625 -353.359375 121.84375 -356.703125 C 121.632812 -360.054688 121.351562 -362.695312 121 -364.625 C 119.59375 -372.34375 116.851562 -377.523438 112.78125 -380.171875 C 108.71875 -382.816406 104.179688 -383.679688 99.171875 -382.765625 C 93.773438 -381.773438 89.394531 -378.484375 86.03125 -372.890625 C 82.664062 -367.296875 81.113281 -358.34375 81.375 -346.03125 L 82.828125 -106 C 82.648438 -104.769531 82.671875 -102.476562 82.890625 -99.125 C 83.109375 -95.78125 83.390625 -93.144531 83.734375 -91.21875 C 85.148438 -83.507812 87.894531 -78.332031 91.96875 -75.6875 C 96.039062 -73.050781 100.582031 -72.191406 105.59375 -73.109375 Z M 105.59375 -73.109375 "></path></g></g></g></g></g></g></g></g></g></g></g></svg>